<svg xmlns="http://www.w3.org/2000/svg">
    <g id="chart">
        <path
            d="M4 6.1C4 5.53995 4 5.25992 4.10899 5.04601C4.20487 4.85785 4.35785 4.70487 4.54601 4.60899C4.75992 4.5 5.03995 4.5 5.6 4.5H8.4C8.96005 4.5 9.24008 4.5 9.45399 4.60899C9.64215 4.70487 9.79513 4.85785 9.89101 5.04601C10 5.25992 10 5.53995 10 6.1V8.9C10 9.46005 10 9.74008 9.89101 9.95399C9.79513 10.1422 9.64215 10.2951 9.45399 10.391C9.24008 10.5 8.96005 10.5 8.4 10.5H5.6C5.03995 10.5 4.75992 10.5 4.54601 10.391C4.35785 10.2951 4.20487 10.1422 4.10899 9.95399C4 9.74008 4 9.46005 4 8.9V6.1Z"
            stroke="#000000" stroke-width="2" stroke-linecap="round" stroke-linejoin="round" />
        <path
            d="M13 6C13 5.53406 13 5.30109 13.0761 5.11732C13.1776 4.87229 13.3723 4.67761 13.6173 4.57612C13.8011 4.5 14.0341 4.5 14.5 4.5H18.5C18.9659 4.5 19.1989 4.5 19.3827 4.57612C19.6277 4.67761 19.8224 4.87229 19.9239 5.11732C20 5.30109 20 5.53406 20 6C20 6.46594 20 6.69891 19.9239 6.88268C19.8224 7.12771 19.6277 7.32239 19.3827 7.42388C19.1989 7.5 18.9659 7.5 18.5 7.5H14.5C14.0341 7.5 13.8011 7.5 13.6173 7.42388C13.3723 7.32239 13.1776 7.12771 13.0761 6.88268C13 6.69891 13 6.46594 13 6Z"
            stroke="#000000" stroke-width="2" stroke-linecap="round" stroke-linejoin="round" />
        <path
            d="M13 12C13 11.5341 13 11.3011 13.0761 11.1173C13.1776 10.8723 13.3723 10.6776 13.6173 10.5761C13.8011 10.5 14.0341 10.5 14.5 10.5H18.5C18.9659 10.5 19.1989 10.5 19.3827 10.5761C19.6277 10.6776 19.8224 10.8723 19.9239 11.1173C20 11.3011 20 11.5341 20 12C20 12.4659 20 12.6989 19.9239 12.8827C19.8224 13.1277 19.6277 13.3224 19.3827 13.4239C19.1989 13.5 18.9659 13.5 18.5 13.5H14.5C14.0341 13.5 13.8011 13.5 13.6173 13.4239C13.3723 13.3224 13.1776 13.1277 13.0761 12.8827C13 12.6989 13 12.4659 13 12Z"
            stroke="#000000" stroke-width="2" stroke-linecap="round" stroke-linejoin="round" />
        <path
            d="M13 18C13 17.5341 13 17.3011 13.0761 17.1173C13.1776 16.8723 13.3723 16.6776 13.6173 16.5761C13.8011 16.5 14.0341 16.5 14.5 16.5H18.5C18.9659 16.5 19.1989 16.5 19.3827 16.5761C19.6277 16.6776 19.8224 16.8723 19.9239 17.1173C20 17.3011 20 17.5341 20 18C20 18.4659 20 18.6989 19.9239 18.8827C19.8224 19.1277 19.6277 19.3224 19.3827 19.4239C19.1989 19.5 18.9659 19.5 18.5 19.5H14.5C14.0341 19.5 13.8011 19.5 13.6173 19.4239C13.3723 19.3224 13.1776 19.1277 13.0761 18.8827C13 18.6989 13 18.4659 13 18Z"
            stroke="#000000" stroke-width="2" stroke-linecap="round" stroke-linejoin="round" />
        <path
            d="M4 15.1C4 14.5399 4 14.2599 4.10899 14.046C4.20487 13.8578 4.35785 13.7049 4.54601 13.609C4.75992 13.5 5.03995 13.5 5.6 13.5H8.4C8.96005 13.5 9.24008 13.5 9.45399 13.609C9.64215 13.7049 9.79513 13.8578 9.89101 14.046C10 14.2599 10 14.5399 10 15.1V17.9C10 18.4601 10 18.7401 9.89101 18.954C9.79513 19.1422 9.64215 19.2951 9.45399 19.391C9.24008 19.5 8.96005 19.5 8.4 19.5H5.6C5.03995 19.5 4.75992 19.5 4.54601 19.391C4.35785 19.2951 4.20487 19.1422 4.10899 18.954C4 18.7401 4 18.4601 4 17.9V15.1Z"
            stroke="#000000" stroke-width="2" stroke-linecap="round" stroke-linejoin="round" />
    </g>
    <path id="chevron" d="M17 18L12 13L7 18M17 11L12 6L7 11" stroke="#000000" stroke-width="2"
        stroke-linecap="round" stroke-linejoin="round" />
    <path id="code" d="M7 8L3 11.6923L7 16M17 8L21 11.6923L17 16M14 4L10 20" stroke="#000000"
        stroke-width="2" stroke-linecap="round" stroke-linejoin="round" />
    <path id="desktop"
        d="M16 21H19.4C19.9601 21 20.2401 21 20.454 20.891C20.6422 20.7951 20.7951 20.6422 20.891 20.454C21 20.2401 21 19.9601 21 19.4V4.6C21 4.03995 21 3.75992 20.891 3.54601C20.7951 3.35785 20.6422 3.20487 20.454 3.10899C20.2401 3 19.9601 3 19.4 3H13.6C13.0399 3 12.7599 3 12.546 3.10899C12.3578 3.20487 12.2049 3.35785 12.109 3.54601C12 3.75992 12 4.03995 12 4.6V6M10 18V21M7 21H13M6.2 18H13.8C14.9201 18 15.4802 18 15.908 17.782C16.2843 17.5903 16.5903 17.2843 16.782 16.908C17 16.4802 17 15.9201 17 14.8V9.2C17 8.0799 17 7.51984 16.782 7.09202C16.5903 6.71569 16.2843 6.40973 15.908 6.21799C15.4802 6 14.9201 6 13.8 6H6.2C5.0799 6 4.51984 6 4.09202 6.21799C3.71569 6.40973 3.40973 6.71569 3.21799 7.09202C3 7.51984 3 8.07989 3 9.2V14.8C3 15.9201 3 16.4802 3.21799 16.908C3.40973 17.2843 3.71569 17.5903 4.09202 17.782C4.51984 18 5.07989 18 6.2 18Z"
        stroke="#000000" stroke-width="2" stroke-linecap="round" />
    <path id="drone"
        d="M6 11V11.6132C6 11.9369 6 12.0988 6.04575 12.2448C6.08624 12.374 6.15256 12.4936 6.24069 12.5965C6.34025 12.7127 6.4775 12.7984 6.752 12.97L7.75339 13.5959M18 11V11.6132C18 11.9369 18 12.0988 17.9542 12.2448C17.9138 12.374 17.8474 12.4936 17.7593 12.5965C17.6597 12.7127 17.5225 12.7984 17.248 12.97L16.2466 13.5959M7.75339 13.5959C8.32199 12.0794 9.78495 11 11.5 11H12.5C14.2151 11 15.678 12.0794 16.2466 13.5959M7.75339 13.5959L8.85714 14.2857M16.2466 13.5959L15.1429 14.2857M8 18V16.2361C8 16.0808 8.03614 15.9277 8.10557 15.7889L8.85714 14.2857M16 18V16.2361C16 16.0808 15.9639 15.9277 15.8944 15.7889L15.1429 14.2857M15.1429 14.2857L14.3891 14.7568C14.2444 14.8473 14.172 14.8925 14.0943 14.9245C14.0254 14.9529 13.9535 14.9736 13.88 14.986C13.7972 15 13.7118 15 13.5411 15H10.4589C10.2882 15 10.2028 15 10.12 14.986C10.0465 14.9736 9.9746 14.9529 9.90567 14.9245C9.82802 14.8925 9.75564 14.8473 9.61088 14.7568L8.85714 14.2857M2 8H10M14 8H22M6 8V6M18 8V6"
        stroke="#000000" stroke-width="2" stroke-linecap="round" stroke-linejoin="round" />
    <path id="laptop"
        d="M9 3V9M6 5V9M3 7V9M21 16V7.2C21 6.0799 21 5.51984 20.782 5.09202C20.5903 4.71569 20.2843 4.40973 19.908 4.21799C19.4802 4 18.9201 4 17.8 4H13M3 16V13M22 16V16.8C22 17.9201 22 18.4802 21.782 18.908C21.5903 19.2843 21.2843 19.5903 20.908 19.782C20.4802 20 19.9201 20 18.8 20H5.2C4.0799 20 3.51984 20 3.09202 19.782C2.71569 19.5903 2.40973 19.2843 2.21799 18.908C2 18.4802 2 17.9201 2 16.8V16H8.33726C8.58185 16 8.70414 16 8.81923 16.0276C8.92127 16.0521 9.01881 16.0925 9.10828 16.1474C9.2092 16.2092 9.29568 16.2957 9.46863 16.4686L9.53137 16.5314C9.70432 16.7043 9.7908 16.7908 9.89172 16.8526C9.98119 16.9075 10.0787 16.9479 10.1808 16.9724C10.2959 17 10.4182 17 10.6627 17H13.3373C13.5818 17 13.7041 17 13.8192 16.9724C13.9213 16.9479 14.0188 16.9075 14.1083 16.8526C14.2092 16.7908 14.2957 16.7043 14.4686 16.5314L14.5314 16.4686C14.7043 16.2957 14.7908 16.2092 14.8917 16.1474C14.9812 16.0925 15.0787 16.0521 15.1808 16.0276C15.2959 16 15.4182 16 15.6627 16H22Z"
        stroke="#000000" stroke-width="2" stroke-linecap="round" stroke-linejoin="round" />
    <path id="presentation"
        d="M5 3V16H19V3M3 16H21M11.5 20C11.2239 20 11 20.2239 11 20.5C11 20.7761 11.2239 21 11.5 21C11.7761 21 12 20.7761 12 20.5C12 20.2239 11.7761 20 11.5 20ZM11.5 20V16M8 11V8L12 11L16 7M16 7H13M16 7V10M11.5 20.5H11.51M3 3H21"
        stroke-width="2" stroke-linecap="round" stroke-linejoin="round" />

    <g id="logo">
        <path d="M5.41669 24L17.0233 42L32.5 29L5.41669 24Z" stroke-width="4"
            stroke-linecap="round" stroke-linejoin="round" />
        <path d="M59.5833 24L47.9768 42L32.5 29L59.5833 24Z" stroke-width="4"
            stroke-linecap="round" stroke-linejoin="round" />
        <path d="M17.6042 42H47.3959L32.5 29L17.6042 42Z" stroke-width="4"
            stroke-linecap="round" stroke-linejoin="round" />
        <path d="M16.25 26L32.5 4L48.75 26" stroke-width="4"
            stroke-linejoin="round" />
    </g>
    <g id="arrow">
        <path d="M19.5 7.5L30 18L19.5 28.5" stroke="#E4E4E4" stroke-width="2" stroke-linecap="round"
            stroke-linejoin="round" />
        <path d="M30 18H6" stroke="#E4E4E4" stroke-width="2" stroke-linecap="round"
            stroke-linejoin="round" />
    </g>

</svg>